<?xml version="1.0" encoding="UTF-8"?><svg id="Laag_2" xmlns="http://www.w3.org/2000/svg" xmlns:xlink="http://www.w3.org/1999/xlink" viewBox="0 0 461 825"><defs><style>.cls-1{fill:none;}.cls-2{fill:#376eb5;}.cls-3{opacity:.3;}.cls-4{fill:url(#Nieuw_patroon_3);opacity:.5;}</style><pattern id="Nieuw_patroon_3" x="0" y="0" width="93.54" height="82.35" patternTransform="translate(-47 192)" patternUnits="userSpaceOnUse" viewBox="0 0 93.54 82.35"><rect class="cls-1" x="0" y="0" width="93.54" height="82.35"/><g id="Laag_1-2" class="cls-3"><path class="cls-2" d="m35.93,52.58c-.05-.33.02-.62.03-.91.07-1.37.22-2.74.42-4.1.03-.19.08-.24.28-.21.65.09,1.2-.09,1.58-.66.26-.39.44-.81.52-1.26.05-.26.14-.27.35-.16.27.15.55.29.84.41.53.2,1.06.24,1.56-.07.67-.41.91-1.24.6-2.06-.13-.33-.3-.63-.49-.92-.08-.13-.08-.19.09-.24.47-.16.97-.28,1.4-.57.86-.58.94-1.66.19-2.35-.42-.38-.91-.61-1.46-.73-.32-.07-.31-.07-.17-.35.18-.35.39-.69.49-1.07.17-.63.07-1.21-.44-1.66-.5-.44-1.07-.47-1.68-.26-.35.12-.67.3-.98.49-.2.12-.26.05-.3-.15-.09-.51-.26-.99-.59-1.41-.71-.89-1.96-.81-2.55.15-.23.39-.39.81-.5,1.25-.05.2-.11.21-.27.13-.37-.19-.75-.39-1.16-.51-1.22-.36-2.24.59-1.97,1.83.1.45.25.89.52,1.26.15.21.1.27-.13.3-.32.05-.63.14-.91.29-.64.32-1.09.8-1.09,1.55,0,.75.46,1.2,1.1,1.51.31.15.64.22.97.3.17.04.21.09.11.25-.22.38-.44.76-.56,1.19-.25.91.24,1.77,1.13,1.97.43.1.84.02,1.23-.15.12-.05.23-.14.41-.14-.25,1.99-.5,3.97-.76,6.01-.21-.25-.36-.44-.52-.61-.71-.74-1.28-1.55-1.36-2.62,0-.05-.02-.09-.03-.13-.28-.92-.72-1.76-1.49-2.35-1.29-.99-2.78-1.08-4.32-.87-.25.03-.38.23-.34.48.1.78.25,1.54.57,2.26.49,1.11,1.27,1.92,2.44,2.32.77.26,1.57.38,2.38.3.3-.03.59-.04.83.23.61.71,1.18,1.45,1.65,2.26.12.2.17.4.16.63-.03,1.11-.03,2.22-.08,3.33-.02.56-.04,1.12-.04,1.68,0,.22-.08.32-.31.31-.21-.01-.42-.01-.63.01-.21.03-.36.15-.37.38,0,.22.14.36.34.4.13.03.27.04.41.04,1.07,0,2.15,0,3.22,0,.13,0,.26-.01.38-.03.23-.03.38-.16.37-.4,0-.25-.17-.37-.41-.39-.18-.01-.37-.02-.55,0-.27.03-.35-.08-.34-.34.05-1.36.08-2.71.11-4.07,0-.18.07-.32.18-.45.33-.37.66-.74.98-1.11.14-.17.31-.24.53-.23.42,0,.84.02,1.26-.05.94-.14,1.73-.53,2.31-1.3.59-.78.85-1.68.93-2.63.02-.27-.11-.43-.39-.47-.2-.03-.4-.04-.6-.05-.88-.05-1.73.05-2.49.51-1.02.62-1.55,1.57-1.74,2.71-.09.57-.38.97-.84,1.33h0Zm5.47-15.59c-.04.45-.35.9-.69,1.32-.11.14-.24.26-.33.4-.24.39-.12.64.33.73.26.05.53.08.79.11.35.04.68.13.99.3.61.34.63,1.01.04,1.38-.43.27-.92.36-1.42.39-.19.02-.39,0-.57.08-.3.13-.39.33-.22.61.14.22.31.43.48.64.25.31.45.65.55,1.04.18.69-.23,1.13-.92.99-.57-.12-1-.47-1.43-.83-.08-.06-.15-.14-.24-.18-.37-.19-.6-.09-.68.32-.07.35-.11.71-.16,1.06-.04.3-.14.57-.3.82-.38.58-1.03.55-1.35-.07-.2-.39-.3-.83-.36-1.26-.03-.17-.03-.35-.06-.52-.08-.46-.33-.57-.72-.33-.19.12-.36.26-.53.4-.31.25-.64.47-1.03.57-.31.08-.63.11-.88-.15-.24-.25-.21-.55-.1-.85.15-.43.36-.82.65-1.17.06-.08.13-.15.2-.23.38-.47.29-.77-.3-.89-.39-.08-.78-.14-1.16-.19-.22-.03-.42-.11-.61-.24-.55-.37-.55-.98.02-1.34.41-.26.86-.34,1.33-.39.2-.02.41-.03.6-.08.34-.08.44-.36.26-.66-.08-.14-.19-.27-.31-.39-.34-.37-.55-.82-.71-1.29-.09-.27-.1-.53.13-.74.24-.22.54-.28.85-.19.47.13.86.4,1.23.71.13.11.25.21.39.3.31.19.57.1.66-.25.09-.36.14-.72.2-1.08.05-.27.1-.54.22-.79.15-.31.39-.48.74-.48.34,0,.57.17.71.47.22.48.26,1.01.35,1.52,0,.04,0,.07,0,.11.04.23.03.5.3.6.27.1.43-.1.61-.23.3-.22.61-.44.91-.66.23-.16.49-.23.78-.24.52-.02.77.23.75.86h0Zm-10.68,12.42c-1.78.2-3.21-.66-3.83-2.27-.14-.38-.24-.77-.32-1.16-.03-.13-.03-.25.15-.26,1.11-.07,2.19.02,3.1.75.65.52,1.02,1.21,1.22,2-.11.05-.15-.04-.2-.08-.55-.42-1.09-.84-1.63-1.26-.14-.11-.27-.22-.44-.28-.19-.07-.35-.02-.46.14-.12.16-.11.33,0,.48.06.07.13.13.2.18.73.57,1.47,1.13,2.2,1.77h0Zm4.58-3.26c.5.45.31.99.23,1.51-.23,1.6-.39,3.2-.49,4.81-.1,1.65-.14,3.3-.17,4.95,0,.35-.03.69-.04,1.04,0,.18-.08.24-.25.24-.2,0-.19-.12-.19-.26,0-1.82.04-3.63.14-5.44.12-2.21.33-4.42.71-6.61.02-.08.03-.16.05-.24h0Zm3.27,3.38c.67-.52,1.44-.75,2.29-.69.17.01.25.06.24.25-.07,1.36-1.54,2.69-2.9,2.6-.03,0-.05-.01-.08-.02,0-.1.08-.12.13-.16.47-.37.94-.74,1.41-1.1.28-.22.36-.44.21-.65-.16-.22-.41-.22-.7,0-.45.33-.89.67-1.33,1-.02-.01-.04-.03-.06-.04.1-.5.4-.88.8-1.19Z"/><path class="cls-2" d="m39.11,40.57c0-1.18-.97-2.17-2.13-2.18-1.17,0-2.18,1.01-2.17,2.18,0,1.17.97,2.13,2.15,2.13,1.21,0,2.16-.94,2.16-2.13Zm-3.47,0c0-.73.61-1.34,1.33-1.33.74,0,1.3.59,1.3,1.35,0,.75-.55,1.29-1.32,1.28-.75,0-1.31-.56-1.31-1.3Z"/></g><g id="Laag_1-2-2" class="cls-3"><path class="cls-2" d="m50.56,24.03c-.61.16-1.13.29-1.65.44-.24.07-.43.03-.63-.12-.6-.42-1.26-.62-1.99-.47-.6.11-.76.4-.55.98.54,1.5,1.09,3,1.64,4.5.22.61.57.72,1.13.38.74-.46,1.11-1.16,1.22-1.99.05-.34.18-.49.5-.57,1.13-.29,2.26-.6,3.38-.91.21-.06.38-.04.57.08.99.65,1.98,1.28,2.97,1.91.53.34.8.26,1.1-.28,1.48-2.57,2.96-5.15,4.44-7.72.3-.51.22-.79-.31-1.06-1.04-.53-2.08-1.07-3.12-1.59-.24-.12-.31-.25-.2-.51.21-.52.18-1.05,0-1.56-.3-.84-.9-1.38-1.79-1.55-.98-.18-1.8.14-2.38.95-.19.26-.33.27-.58.13-.26-.15-.54-.28-.82-.42-.53-.26-.73-.21-1.02.3-.12.2-.24.27-.47.19-.36-.13-.73-.17-1.1-.16-1.41,0-2.78.94-3.31,2.23-.58,1.42-.3,2.98.75,4.02.23.23.28.4.11.69-.23.39-.14.63.24.89.42.27.84.54,1.25.81.18.12.35.24.6.41h0Zm10.95-3.93c-.03.06-.06.12-.09.17-1.27,2.2-2.54,4.39-3.81,6.59-.13.22-.25.2-.43.08-1.46-.95-2.93-1.9-4.4-2.84-.92-.6-1.84-1.2-2.78-1.78-.26-.16-.34-.3-.17-.59,1.09-1.86,2.16-3.72,3.23-5.59.15-.26.29-.3.57-.16,2.54,1.31,5.08,2.61,7.62,3.91.09.05.22.07.25.21h0Zm-9.88-3.86c.11.2-.13.39-.23.57-.65,1.13-1.3,2.26-1.95,3.38-.2.35-.26.36-.5.02-.6-.85-.73-1.76-.26-2.69.47-.92,1.26-1.4,2.3-1.42.23.04.52-.08.64.14Zm-2.98,11.03c0,.3-.05.66-.23.98-.03.06-.05.14-.13.14-.09,0-.09-.09-.11-.15-.37-1-.73-2-1.1-3-.02-.06-.07-.14-.01-.19.08-.08.17,0,.25.03.77.31,1.33,1.2,1.34,2.18h0Zm8.12-12.18c.86,0,1.46.7,1.3,1.49-.05.25-.13.36-.41.21-.56-.31-1.12-.59-1.69-.87-.23-.11-.25-.24-.08-.41.25-.26.54-.45.89-.42h0Zm-4.92,10.51c-.63.17-1.27.34-1.9.5-.25.07-.61-.28-.54-.53.02-.1.11-.1.19-.12.7-.19,1.39-.39,2.1-.55.4-.09.6.29.99.46-.35.1-.59.18-.84.24Z"/><path class="cls-2" d="m42.96,28.56c-.29,0-.52.25-.52.55,0,.31.25.55.56.54.32,0,.56-.25.54-.56-.01-.31-.26-.54-.58-.53h0Z"/><path class="cls-2" d="m45.09,26.99c0-.3-.23-.54-.52-.55-.31-.01-.57.23-.57.54,0,.33.2.56.53.57.31,0,.56-.24.56-.55h0Z"/><path class="cls-2" d="m41.95,28.25c.31,0,.56-.25.55-.56,0-.29-.25-.55-.53-.55-.32,0-.55.23-.55.55,0,.34.21.55.54.56h0Z"/><path class="cls-2" d="m41.45,30.24c-.31-.01-.57.23-.57.54,0,.31.24.57.55.57.3,0,.55-.26.56-.56,0-.3-.23-.53-.53-.54Z"/><path class="cls-2" d="m45.01,29.11c.31.02.57-.21.58-.53.01-.32-.19-.55-.5-.57-.31-.02-.58.21-.59.53-.02.29.22.56.51.58Z"/><path class="cls-2" d="m40.61,29.59c0-.29-.26-.55-.54-.55-.32,0-.56.24-.56.56,0,.34.23.55.57.54.3,0,.54-.25.53-.55h0Z"/></g><g id="Laag_1-2-3" class="cls-3"><g id="oAjDT3"><path class="cls-2" d="m80.62,27.47c.08.01.15.04.23.04.64,0,1.29,0,1.93,0,.06,0,.13-.02.19-.04h-2.36Z"/><path class="cls-2" d="m72.13,47.94h3.03c.84,0,1.68,0,2.52,0,.15,0,.19.04.18.19-.02.21,0,.42,0,.62,0,2.78,0,5.57,0,8.35,0,.44.16.61.59.62,1.24,0,2.49.01,3.74.01.91,0,1.83,0,2.74-.03.76-.02,1.27-.58,1.27-1.33v-14.7c0-.08,0-.16,0-.24-.03-.26-.22-.45-.47-.47-.27-.02-.48.12-.55.39-.02.1-.02.21-.02.32,0,4.87,0,9.73,0,14.6,0,.36-.03.4-.39.4-1.9,0-3.8,0-5.71,0-.13,0-.17-.04-.17-.17,0-2.87,0-5.75,0-8.62,0-.18,0-.36-.03-.54-.01-.1-.07-.2-.14-.28-.14-.17-.35-.16-.55-.16-2.14,0-4.28,0-6.41,0-.09,0-.19,0-.28.03-.2.05-.34.17-.37.39-.01.09-.02.18-.02.27,0,2.88,0,5.77,0,8.65,0,.09,0,.19,0,.29,0,.11-.03.15-.14.15-.19,0-.39,0-.59,0-1.71,0-3.42,0-5.13,0-.34,0-.39-.04-.39-.33,0-4.81,0-9.62,0-14.43,0-.16,0-.33,0-.49-.02-.26-.19-.43-.44-.45-.26-.03-.48.09-.55.33-.04.15-.05.32-.05.48v14.29c0,.13,0,.26,0,.39.04.53.28.95.79,1.12.28.1.6.12.91.13.75.02,1.49,0,2.24,0,1.27,0,2.55,0,3.82-.02.39,0,.57-.19.57-.57,0-2.94,0-5.88.01-8.82v-.37h0Z"/><path class="cls-2" d="m79.28,32.67c-.08-.06-.13-.09-.17-.12-.31-.23-.62-.46-.94-.68-.89-.64-1.79-1.28-2.68-1.93-.4-.29-.58-.3-.97-.02-.69.49-1.38.99-2.06,1.48-1.95,1.4-3.9,2.8-5.85,4.2-1.59,1.14-3.19,2.29-4.78,3.43-.57.41-1.14.83-1.71,1.25-.18.13-.21.31-.17.51.03.2.16.32.34.38.19.07.34-.01.48-.12,1.63-1.17,3.26-2.34,4.9-3.51,1.54-1.1,3.08-2.21,4.62-3.32,1.53-1.1,3.07-2.19,4.59-3.29.1-.07.16-.06.25,0,1.05.76,2.1,1.51,3.16,2.27,1.85,1.33,3.7,2.66,5.55,3.98,1.5,1.08,3,2.15,4.5,3.22.3.22.6.43.9.65.15.11.3.18.5.1.4-.15.41-.72.12-.91-.09-.06-.18-.14-.27-.2-1.74-1.25-3.49-2.51-5.23-3.76-.09-.06-.13-.13-.13-.25,0-1.29.02-2.57.02-3.85,0-1.11.01-2.21-.02-3.32-.02-.81-.66-1.36-1.42-1.32-.67.03-1.34.03-2,0-.76-.03-1.33.38-1.47,1.13-.04.24-.05.49-.05.74,0,.96,0,1.92,0,2.88v.35h0Zm3.92,2.8c-.3-.21-.57-.4-.84-.59-.64-.45-1.28-.91-1.91-1.37-.07-.05-.12-.18-.12-.27-.01-.45,0-.9,0-1.35,0-.95,0-1.9,0-2.84,0-.36.12-.47.47-.48.63,0,1.27-.01,1.9-.02.38,0,.5.13.5.5,0,2.06,0,4.13,0,6.19v.22h0Z"/><path class="cls-2" d="m75.04,37.75c-1.69.01-2.93,1.2-2.92,2.92,0,1.67,1.32,2.86,2.91,2.87,1.55,0,2.87-1.32,2.87-2.88-.04-1.65-1.24-2.91-2.85-2.9Zm-.01,1.04c1.04,0,1.82.78,1.83,1.83,0,1.04-.81,1.88-1.84,1.89-1.01.01-1.87-.83-1.87-1.84,0-1.15.86-1.91,1.88-1.88h0Z"/></g></g><g id="Laag_1-2-4" class="cls-3"><g id="Z1BdtO.tif"><path class="cls-2" d="m12.11,7.06h-.5s-.08,0-.11.01c-.25.02-.5.03-.74.06-.56.07-1.11.2-1.65.38-.91.31-1.74.75-2.49,1.34-.62.48-1.16,1.03-1.62,1.67-.41.58-.74,1.21-.98,1.88-.17.48-.3.97-.38,1.47-.05.33-.09.65-.11.98,0,.06-.02.12-.02.17v.69s.01.05.01.08c.02.23.03.45.06.68.05.43.13.85.23,1.27.2.79.49,1.54.88,2.25.36.67.79,1.28,1.31,1.83.25.27.52.53.78.79.1.1.2.21.32.29-.11.77.07,1.45.58,2.02.51.57,1.17.83,1.94.82-.03.72.2,1.34.71,1.84.51.5,1.13.73,1.85.72-.02.72.2,1.34.71,1.84.51.5,1.13.73,1.84.72,0,.02,0,.04,0,.05,0,.09,0,.19,0,.28.03.37.14.72.34,1.04.51.85,1.52,1.3,2.45,1.15.48-.08.9-.27,1.25-.61.62-.61,1.23-1.22,1.84-1.84.35-.36.57-.78.65-1.28,0-.04.01-.08.02-.13.8.19,1.52.05,2.15-.47.63-.52.91-1.2.9-2.01.72.02,1.34-.21,1.84-.71.5-.51.73-1.13.71-1.85.03,0,.06,0,.08,0,.14,0,.28,0,.43-.03.41-.07.79-.22,1.11-.49.58-.47.89-1.08.93-1.83,0-.05.02-.08.05-.11.16-.18.33-.35.48-.54.66-.8,1.14-1.69,1.48-2.67.18-.54.31-1.09.38-1.65.04-.3.06-.61.06-.91,0-.24,0-.48,0-.71-.02-.47-.09-.94-.2-1.39-.17-.75-.44-1.46-.81-2.14-.35-.66-.79-1.26-1.3-1.8-.37-.39-.78-.75-1.22-1.05-.58-.4-1.19-.71-1.85-.94-.59-.21-1.2-.35-1.83-.42-.26-.03-.53-.05-.79-.06-.53-.02-1.07,0-1.6.08-.37.05-.74.12-1.11.22-1.04.27-2.01.69-2.91,1.28-.12.08-.23.15-.34.23-.02-.02-.04-.04-.06-.06-.16-.14-.31-.29-.47-.43-.7-.6-1.48-1.07-2.34-1.41-.53-.21-1.07-.37-1.63-.47-.24-.04-.48-.08-.72-.1-.17-.02-.35-.02-.53-.03-.02,0-.04,0-.07-.01h0Zm6.63,19.79c.02-.72-.2-1.34-.72-1.84-.51-.5-1.12-.73-1.84-.71.02-.72-.2-1.34-.71-1.84-.51-.5-1.12-.73-1.84-.71,0-.04,0-.07,0-.11,0-.43-.09-.83-.3-1.2-.31-.54-.76-.91-1.34-1.12-.32-.11-.66-.15-1-.12-.53.05-.99.25-1.39.61-.04.04-.08.08-.13.12-.54.54-1.08,1.08-1.62,1.62-.07.07-.15.14-.22.2,0,0,0,0,0,.01,0,0-.01,0-.02,0-.3-.3-.6-.59-.88-.9-.53-.61-.95-1.28-1.28-2.02-.27-.61-.47-1.25-.6-1.91-.11-.6-.16-1.22-.14-1.83.03-.89.21-1.76.55-2.58.27-.66.65-1.27,1.13-1.8.46-.52.99-.96,1.58-1.33.7-.44,1.46-.74,2.27-.92.26-.06.52-.1.79-.13.41-.05.83-.06,1.24-.03.77.04,1.52.21,2.25.49.9.35,1.7.86,2.4,1.53.02.02.04.03.07.05-1.92,1.92-3.83,3.83-5.74,5.74,0,.01.01.02.02.03.16.16.32.32.48.48.48.46,1.04.79,1.68.99.26.08.53.14.81.17.27.03.54.03.81,0,.47-.04.92-.15,1.35-.34.45-.2.86-.46,1.23-.79.08-.07.15-.15.23-.22.85-.85,1.69-1.69,2.54-2.54.02-.02.03-.03.05-.06.03.03.05.05.07.07,1.57,1.57,3.13,3.13,4.7,4.7.89.89,1.77,1.77,2.66,2.66.13.13.24.29.3.47.11.33.07.66-.1.96-.15.27-.37.46-.67.55-.43.13-.81.05-1.15-.24-.37-.32-.69-.67-1.03-1.01-1.42-1.42-2.84-2.84-4.26-4.26-.08-.08-.16-.14-.26-.18-.34-.13-.73.09-.8.45-.04.21.01.38.15.54.02.02.04.05.07.07,1.73,1.73,3.46,3.46,5.19,5.19.11.11.2.23.27.37.14.32.14.63,0,.95-.16.37-.44.61-.84.7-.37.08-.71,0-1.01-.25-.05-.04-.09-.08-.13-.13-1.73-1.73-3.46-3.46-5.19-5.19-.07-.07-.15-.13-.24-.17-.36-.15-.77.09-.83.47-.03.19.02.36.15.5.02.03.05.05.07.08,1.7,1.7,3.4,3.4,5.11,5.11.12.12.23.24.31.39.11.19.16.4.14.63-.02.31-.14.57-.35.79-.2.2-.44.32-.72.35-.36.03-.66-.08-.93-.31-.06-.05-.13-.1-.2-.14-.02-.01-.04-.03-.05-.05-.31-.44-.73-.74-1.24-.91-.19-.06-.38-.1-.58-.11-.1,0-.19,0-.3-.01h0Zm10.29-6.1c-.12-.17-.25-.31-.39-.44-2.56-2.56-5.13-5.13-7.69-7.69-.09-.09-.2-.17-.32-.21-.22-.08-.42-.04-.6.11-.03.03-.06.06-.09.09-.99.99-1.99,1.99-2.98,2.98-.19.19-.4.37-.64.52-.34.21-.71.36-1.1.43-.27.05-.54.06-.82.04-.41-.04-.81-.16-1.17-.36-.06-.03-.12-.07-.18-.11-.01,0-.02-.02-.05-.04.02-.02.05-.04.07-.05,1.54-1.54,3.08-3.08,4.62-4.62.71-.71,1.53-1.26,2.44-1.67.55-.24,1.12-.43,1.71-.55.23-.05.47-.08.7-.11.37-.05.74-.07,1.12-.06.26,0,.53.02.79.05.73.08,1.43.26,2.11.56.7.31,1.33.72,1.88,1.25.64.62,1.15,1.32,1.53,2.13.28.59.48,1.2.59,1.85.09.52.13,1.04.11,1.57-.05,1.37-.46,2.63-1.21,3.78-.12.18-.25.35-.38.53-.01.02-.03.03-.04.05h0Zm-11.51,5.97c0,.33-.12.61-.35.85-.59.59-1.17,1.17-1.76,1.76-.18.18-.39.29-.64.33-.26.04-.51,0-.73-.13-.33-.18-.55-.45-.62-.83-.07-.38.03-.72.28-1.01.04-.04.08-.09.12-.13.55-.55,1.11-1.11,1.66-1.66.11-.11.22-.2.36-.26.32-.14.64-.14.95,0,.37.16.61.45.71.85,0,.04.02.08.02.11,0,.04,0,.09,0,.13h0Zm-8.89-4.21c.58-.58,1.17-1.17,1.75-1.75.17-.17.37-.28.61-.32.32-.06.62,0,.89.19.27.19.45.44.51.77.07.37-.03.71-.27,1-.02.03-.05.05-.07.08-.58.58-1.15,1.15-1.73,1.73-.17.17-.36.28-.6.33-.39.07-.73-.02-1.03-.28-.23-.19-.36-.45-.4-.74,0-.05,0-.09,0-.13,0-.34.12-.62.35-.85Zm7.31,8.54c0-.36.12-.64.35-.87.59-.59,1.18-1.18,1.77-1.77.15-.15.32-.25.52-.3.3-.07.59-.04.86.11.31.17.52.43.6.78.09.39,0,.74-.27,1.04-.06.07-.13.14-.2.21-.53.53-1.06,1.06-1.59,1.59-.15.15-.33.27-.54.32-.45.11-.85-.01-1.17-.34-.22-.22-.33-.51-.33-.78h0Zm-3.9-3.95c-.54,0-1.08-.39-1.19-.98-.07-.4.04-.76.33-1.05.59-.59,1.18-1.18,1.77-1.77.16-.16.34-.26.56-.31.34-.07.65,0,.93.19.26.18.44.42.5.74.08.39-.02.73-.28,1.03-.02.02-.04.04-.06.06-.58.58-1.15,1.15-1.73,1.73-.17.17-.36.28-.59.33-.08.02-.16.02-.23.03h0Z"/></g></g><g id="Laag_1-2-5" class="cls-3"><path class="cls-2" d="m23.37,63.63s-.01-.07-.03-.11c-.1-.3-.19-.61-.3-.91-.04-.11-.08-.2-.01-.3.02-.04.03-.08.04-.13.03-.27.08-.55.09-.82.02-.75.02-1.5.02-2.25,0-.3-.04-.61-.09-.91-.06-.35-.39-.55-.68-.53-.21.02-.4.1-.58.19-.51.27-1.01.55-1.52.83-.06.03-.09.05-.16,0-.66-.64-1.41-1.15-2.22-1.56-1.16-.59-2.38-.94-3.67-1.08-.96-.11-1.93-.1-2.89.03-1.23.17-2.4.51-3.5,1.08-1.3.67-2.41,1.57-3.24,2.79-.9,1.35-1.3,2.82-1.11,4.45.1.81.35,1.58.74,2.29.71,1.29,1.73,2.28,2.98,3.04,1.6.97,3.35,1.44,5.21,1.52.87.04,1.73-.02,2.59-.18.97-.18,1.9-.48,2.79-.92.51-.25,1-.54,1.45-.89.09-.07.19-.11.3-.14.11-.02.23-.05.34-.08.9-.26,1.66-.72,2.29-1.42.44-.48.76-1.03.97-1.64.02-.07.05-.09.12-.08.18,0,.36,0,.53,0,.17,0,.29-.12.29-.27,0-.17-.11-.28-.28-.29-.14,0-.28,0-.42,0-.05,0-.07-.01-.07-.07.03-.28.05-.56.07-.84,0-.18,0-.18.16-.25.03-.01.06-.03.09-.05.09-.07.13-.16.11-.27-.02-.11-.08-.2-.2-.22-.07-.01-.15,0-.24,0h0Zm-4.12-4.25c-.12.09-.21.17-.32.24-.02.01-.04.02-.07.02-.59.03-1.16.17-1.7.41-.03.01-.06.02-.09,0-.36-.09-.72-.2-1.08-.27-.61-.11-1.22-.21-1.84-.28-.28-.04-.56-.04-.84-.02-.35.02-.6.33-.6.68,0,.38.09.74.18,1.1.2.86.42,1.71.72,2.54.04.12.1.22.15.34.01.03.02.06.02.09-.07,1.06.2,2.03.79,2.9.02.02.03.05.05.08-.01,0-.02.02-.03.02-.14.02-.28.04-.43.06-.05,0-.07,0-.08-.06-.15-.94-.62-1.71-1.3-2.36-.53-.5-1.14-.87-1.8-1.16-.17-.07-.35-.09-.51.02-.31.21-.27.66.08.83.14.06.27.12.41.19.66.32,1.22.76,1.66,1.35.26.35.44.74.53,1.17.02.08,0,.1-.08.1-.49,0-.98-.02-1.47-.09-.83-.11-1.64-.32-2.41-.66-.1-.04-.2-.09-.31-.13-.29-.12-.61,0-.74.27-.13.29-.03.61.26.75.6.3,1.23.51,1.88.67.92.23,1.85.33,2.8.32.62,0,1.24-.06,1.85-.18.76-.15,1.5-.37,2.21-.69.31-.14.7-.06.92.17.21.23.22.54.01.78-.04.04-.08.09-.13.13-.28.22-.55.42-.88.57-.88.38-1.79.64-2.73.77-.98.13-1.97.13-2.95-.02-1.25-.19-2.43-.58-3.52-1.24-.95-.57-1.76-1.3-2.36-2.23-.48-.74-.78-1.54-.87-2.42-.12-1.19.17-2.29.78-3.3.57-.93,1.34-1.66,2.26-2.25.77-.5,1.6-.85,2.48-1.1,1.11-.31,2.25-.42,3.4-.35,1.39.08,2.71.42,3.94,1.06.61.32,1.18.7,1.7,1.16.01.01.03.02.05.03h0Zm3.12,4.08c.04.19.07.35.1.52,0,.02-.03.07-.05.08-.3.13-.61.25-.91.38-.17.07-.25.23-.18.39.06.15.22.21.39.14.23-.09.45-.19.68-.29.03-.01.06-.02.11-.04-.01.13-.02.25-.04.37,0,.08-.03.16-.04.24-.01.07-.04.1-.12.09-.17,0-.35,0-.52,0-.19,0-.31.11-.32.27,0,.18.12.29.32.29h.43c-.1.27-.23.51-.39.73-.61.85-1.43,1.38-2.47,1.61-.02-.46-.17-.86-.5-1.2.05-.03.09-.07.14-.1.05-.04.1-.07.15-.12.11-.1.12-.26.04-.38-.08-.12-.24-.15-.37-.07-.13.08-.25.17-.37.27-.04.03-.08.04-.13.01-.56-.27-1.12-.26-1.68-.01-.3.13-.61.23-.92.34-.06.02-.1,0-.14-.04-.5-.6-.79-1.29-.86-2.06-.01-.12-.01-.25-.02-.37,0-.14.02-.27.09-.4.12-.2.08-.52-.09-.69-.05-.05-.09-.12-.11-.18-.28-.83-.5-1.67-.68-2.52,0-.03,0-.05,0-.09.03,0,.07,0,.1,0,.65.1,1.31.21,1.96.32.12.02.25.05.37.08.1.03.19.07.28.11.19.09.38.1.56-.02.38-.25.81-.38,1.25-.47.55-.11,1.09-.09,1.63.04.19.04.37.12.55.17.11.03.22.06.32.05.21-.02.36-.18.39-.39.03-.2-.08-.4-.26-.48-.1-.05-.21-.08-.32-.12-.03-.01-.06-.03-.12-.05.48-.28.94-.54,1.43-.82,0,.13.02.22.02.32-.01.72-.02,1.44-.04,2.17,0,.13-.04.25-.09.37-.07.15-.09.34-.09.51,0,.2,0,.41-.08.6-.16.43-.58.64-1.02.5-.23-.07-.42-.21-.58-.38-.11-.12-.24-.16-.39-.12-.26.07-.37.38-.2.59.48.58,1.28.89,2.01.61.31-.12.56-.33.73-.62.02-.02.03-.05.06-.1h0Z"/><path class="cls-2" d="m17.2,65.65c.27,0,.54-.07.78-.22.47-.29.73-.73.85-1.26.03-.13,0-.26-.09-.36-.21-.21-.54-.12-.63.15-.04.14-.08.28-.15.4-.33.6-.93.7-1.4.22-.12-.13-.21-.29-.3-.45-.11-.19-.3-.27-.5-.19-.18.08-.27.29-.19.48.06.14.13.28.22.4.34.48.79.77,1.4.8h0Z"/><path class="cls-2" d="m19.7,66.19c.07,0,.15-.01.22-.03.3-.08.55-.23.7-.52.14-.29,0-.59-.32-.66-.11-.02-.22-.03-.33-.02-.34.05-.62.2-.79.51-.16.31-.02.62.32.69.06.01.13.02.2.03h0Z"/><path class="cls-2" d="m16.56,66.53s.06,0,.09-.02c.51-.12,1.02-.24,1.53-.36.16-.04.32-.07.48-.12.11-.03.18-.1.2-.21.02-.11-.02-.21-.1-.28-.09-.07-.18-.06-.28-.04-.42.1-.83.2-1.25.3-.26.06-.52.12-.77.19-.13.04-.22.18-.2.31.02.15.14.24.3.24h0Z"/></g><g id="AtYOPv" class="cls-3"><path class="cls-2" d="m32.75,73.61c-1.5,3.16-.08,6.89,3.15,8.26,1.62.68,3.24.64,4.86-.05,2.14-1.03,3.33-2.74,3.63-5.08h.13c.61,0,1.21,0,1.82,0,.22,0,.38-.08.51-.24.45-.52.91-1.04,1.37-1.56.94-1.06,1.87-2.12,2.81-3.18.69-.78,1.38-1.57,2.08-2.35.03-.03.06-.07.1-.11.17.47.34.93.51,1.38-1.52.75-2.6,1.89-3.17,3.48-.57,1.59-.5,3.17.23,4.7,1.34,2.81,4.57,4.2,7.58,3.13,2.88-1.02,4.63-4.05,3.89-7.17-.36-1.53-1.2-2.75-2.5-3.63-1.57-1.07-3.29-1.31-5.12-.85-.01-.03-.03-.07-.04-.1-.53-1.44-1.07-2.88-1.55-4.33-.08-.24-.16-.47-.24-.71-.07-.2-.22-.33-.44-.33-.55,0-1.09,0-1.64,0-.25,0-.45.2-.46.45-.01.24.15.44.39.49.05.01.11.02.17.02.35,0,.7,0,1.05,0,.04,0,.09,0,.13,0,.16.47.32.92.48,1.39-2.88.32-5.75.64-8.62.96-.17-.46-.34-.9-.51-1.36.06,0,.11,0,.15,0,.52,0,1.04,0,1.56,0,.04,0,.08,0,.12,0,.24-.01.43-.19.46-.42.03-.24-.12-.46-.36-.52-.07-.02-.13-.02-.2-.02-1.12,0-2.24,0-3.37,0-.04,0-.08,0-.12,0-.2.02-.34.12-.41.31-.12.31.1.64.43.65.2,0,.4,0,.6,0,.04,0,.08,0,.11,0,.02.05.03.08.05.12.21.56.41,1.11.62,1.67.03.08.02.14-.03.21-.43.59-.86,1.19-1.3,1.79-.09.12-.17.24-.26.36-3.22-1.87-7.15-.53-8.65,2.64Zm21.45-1.63c.53,1.44,1.06,2.88,1.59,4.32.06.17.16.31.34.37.34.11.69-.2.6-.55-.04-.16-.1-.31-.16-.47-.49-1.34-.98-2.68-1.47-4.01-.01-.03-.02-.07-.04-.1,1.61-.51,4.32,0,5.6,2.53,1.22,2.42.22,5.39-2.29,6.57-2.52,1.19-5.49.04-6.56-2.52-1.09-2.59.24-5.26,2.35-6.25.01.04.03.07.04.11Zm-14.34,1.12c-.68.93-1.35,1.87-2.03,2.8-.05.06-.09.13-.12.21-.1.3.11.61.43.63.05,0,.1,0,.14,0,1.56,0,3.11,0,4.67,0h.14c-.08,1.43-1.12,3.4-3.29,4.12-2.21.74-4.57-.18-5.73-2.14-1.18-1.98-.81-4.53.92-6.09,1.7-1.55,4.07-1.57,5.66-.63-.27.37-.53.74-.8,1.1Zm12.9-4.74c-.82.93-1.63,1.85-2.45,2.78-1.22,1.38-2.44,2.77-3.66,4.15-.03.03-.06.06-.1.12-.78-2.1-1.56-4.19-2.35-6.29,2.87-.32,5.73-.64,8.59-.96q.06.12-.02.21Zm-11.31,4.18c.97.87,1.53,1.93,1.67,3.23h-4.01c.78-1.08,1.55-2.15,2.34-3.23Zm2.92,3.23c-.16-1.71-.89-3.12-2.19-4.24.41-.57.82-1.14,1.24-1.72.74,2,1.48,3.97,2.22,5.96h-1.27Z"/></g><g id="QgWhSw.tif" class="cls-3"><path class="cls-2" d="m66.6,9.23c.51.85,1.31,1.28,2.28,1.4.03,0,.06,0,.09.01-.08.43-.17.86-.22,1.29-.15,1.34-.14,2.67.36,3.95.55,1.42,1.56,2.41,2.93,3.05,1.24.58,2.56.85,3.92.92.94.05,1.89.07,2.83.04,1.64-.06,3.25-.33,4.72-1.12,1.67-.9,2.65-2.31,2.93-4.19.2-1.32.09-2.62-.21-3.88.4-.12.8-.21,1.17-.38,1.21-.54,1.84-1.86,1.55-3.15-.2-.89-.59-1.69-1.09-2.44-.73-1.12-1.56-2.15-2.63-2.98-.68-.53-1.44-.88-2.32-.91-.41-.01-.81.06-1.18.26-.12.06-.2.07-.32-.01C80.22.25,78.87-.02,77.44,0c-1.01.02-1.98.18-2.89.63-.27.13-.52.31-.79.46-.07.04-.17.06-.23.03-.84-.42-1.68-.34-2.52,0-.74.31-1.35.8-1.9,1.37-1.02,1.07-1.93,2.22-2.51,3.59-.19.44-.29.91-.43,1.37,0,.27,0,.54,0,.8.14.32.24.67.42.97Zm11.71,9c0-.77,0-1.55,0-2.32,0-.2.06-.29.24-.38.83-.43,1.45-1.07,1.79-1.94.44-1.12-.16-2.14-1.35-2.34-.92-.15-1.85-.15-2.77,0-1.18.2-1.77,1.23-1.33,2.35.34.87.96,1.51,1.79,1.93.17.09.23.17.23.37-.01.78,0,1.56,0,2.34,0,.08,0,.16,0,.29-.74-.08-1.46-.13-2.17-.24-.93-.14-1.82-.42-2.63-.92-1.06-.66-1.69-1.6-1.9-2.82-.26-1.47-.1-2.92.4-4.32.58-1.64,1.17-3.28,1.79-4.91.39-1.01.92-1.95,1.73-2.7.7-.65,1.54-1.01,2.48-1.14.82-.11,1.64-.1,2.46.08,1.13.25,2,.87,2.68,1.78.56.75.96,1.59,1.29,2.46.57,1.53,1.12,3.06,1.65,4.6.41,1.18.54,2.41.42,3.64-.18,1.89-1.21,3.14-2.96,3.81-.91.35-1.85.51-2.82.58-.32.02-.64.04-.99.07v-.28Zm-6.56-14.83c-.69,1.16-1.09,2.44-1.54,3.71-.24.66-.48,1.32-.73,1.98-.02.06-.09.15-.15.15-.63.08-1.35-.31-1.63-.88-.18-.36-.13-.74-.03-1.11.26-.96.81-1.78,1.4-2.56.58-.76,1.2-1.5,2.01-2.03.41-.27.86-.45,1.4-.41-.26.4-.51.76-.74,1.15Zm12.35-.73c.62.39,1.11.92,1.57,1.47.69.83,1.33,1.7,1.71,2.72.09.25.16.51.2.77.14.9-.62,1.49-1.29,1.58-.17.02-.34.03-.53.05-.2-.54-.4-1.07-.6-1.6-.43-1.14-.82-2.29-1.3-3.4-.29-.65-.72-1.24-1.09-1.85-.02-.04-.05-.07-.09-.15.55-.04.99.15,1.41.41Zm-5.27,10c.2.03.26.15.2.34-.14.48-.47.82-.85,1.1-.48.36-.69.35-1.17,0-.34-.25-.62-.55-.79-.94-.14-.32-.09-.46.25-.52.37-.06.75-.08,1.19-.12.35.04.76.09,1.17.15Z"/><path class="cls-2" d="m79.92,9.29c-.51,0-.93-.42-.94-.93,0-.51.42-.94.93-.94.51,0,.93.42.93.94,0,.51-.42.94-.93.94Z"/><path class="cls-2" d="m75.28,9.29c-.51,0-.93-.43-.93-.94,0-.5.43-.93.92-.93.51,0,.93.43.93.94,0,.51-.42.92-.92.92Z"/></g></pattern></defs><g id="Laag_1-2"><rect class="cls-4" width="461" height="825"/></g></svg>