<?xml version="1.0" encoding="UTF-8"?><svg id="Laag_2" xmlns="http://www.w3.org/2000/svg" viewBox="0 0 476.58 719.95"><defs><style>.cls-1{fill:#0e8d84;}</style></defs><g id="Laag_1-2"><path class="cls-1" d="m254.43,263.3c66.15,0,132.3,0,198.46,0,17.24,0,25.51,9.63,23.36,26.88-6.11,49.09-12.11,98.18-18.17,147.28-5.54,44.79-11.12,89.57-16.66,134.36-3.09,24.95-6.09,49.92-9.17,74.87-4.89,39.58-38.97,72.16-78.77,72.66-66.47.84-132.97.79-199.44-.04-38.93-.49-73.47-34.25-77.99-73.03-4.93-42.35-10.41-84.63-15.6-126.94-7.49-60.99-14.94-121.99-22.43-182.99-1.95-15.87-4.07-31.72-5.91-47.6-1.86-16,6.63-25.41,22.87-25.43,45.99-.04,91.98-.01,137.97-.01,20.5,0,40.99,0,61.49,0Zm-178.94,41.54c1.32,10.9,2.58,21.28,3.85,31.66,4.8,39.17,9.62,78.34,14.42,117.51,4.85,39.5,9.68,79,14.55,118.5,2.81,22.8,5.26,45.67,8.64,68.39,3.42,23,20.68,37.75,43.87,37.82,62.14.18,124.29.17,186.43,0,24.47-.06,41.88-16.11,44.7-40.4,1.15-9.92,2.38-19.84,3.6-29.75,5.18-41.97,10.38-83.95,15.55-125.92,5.56-45.12,11.09-90.24,16.65-135.36,1.73-14.02,3.48-28.03,5.28-42.46H75.49Z"/><path class="cls-1" d="m127.74,96.86c-.94-9.58-2.92-18.51-2.47-27.31,1.24-24.26,17.98-44.22,41.82-50.96,20.02-5.67,40.09-11.15,60.19-16.51,30.84-8.23,61.07,8.72,70.35,39.29.77,2.53,1.5,5.08,2.38,8.08,1.39-.25,2.64-.38,3.84-.7,23.78-6.43,47.35-13.74,71.36-19.13,41.69-9.36,82.33,16.13,93.59,57.56,1.57,5.78,3.22,11.54,4.57,17.37,2.78,12.02-3.01,22.1-14.94,25.43-27.57,7.7-55.2,15.19-82.8,22.75-102.08,27.99-204.15,55.97-306.23,83.96-11.4,3.13-22.79,6.29-34.19,9.41-13.97,3.82-24.38-2.18-28.05-16.2C4.03,218.01,0,206.37,0,193.78c-.03-36.94,22.99-67.81,58.58-77.78,22.11-6.2,44.29-12.17,66.43-18.26,1.1-.3,2.18-.7,2.73-.88Zm-85.12,104.58c128.43-35.21,256.91-70.43,385.76-105.76-.92-2.25-1.45-3.82-2.17-5.3-8.22-17.01-27.02-25.2-45.83-20-30.32,8.38-60.62,16.82-90.95,25.13-73.09,20.02-146.2,39.92-219.25,60.08-5.02,1.38-10.02,3.85-14.23,6.92-12.08,8.82-17.94,26.34-13.33,38.92ZM260.05,60.55c-3.7-17.84-10.31-21.99-27.22-17.38-17.15,4.68-34.27,9.47-51.42,14.15-14.46,3.94-19.09,14.21-12.11,28.11,30.19-8.28,60.49-16.58,90.75-24.88Z"/><path class="cls-1" d="m322.46,615.97c3.33-41.37,6.86-84.69,10.28-128.01,3.2-40.5,6.3-81.01,9.44-121.51.27-3.49.55-6.97.91-10.45.88-8.54,8.08-14.83,16.29-14.28,8.47.57,15.17,8,14.51,16.64-2.34,30.38-4.88,60.74-7.3,91.11-2.45,30.71-4.86,61.41-7.26,92.12-2.06,26.23-4.07,52.46-6.14,78.68-.8,10.08-7.79,16.75-16.73,16.06-8.84-.69-14.73-8.38-13.99-20.37Z"/><path class="cls-1" d="m133.63,360.9c1.43-4.44,2.12-9.33,4.46-13.22,3.2-5.31,10.03-7.12,15.93-5.35,6.56,1.97,10.55,6.53,11.25,13.25,1.19,11.25,1.88,22.56,2.78,33.85,4.14,52.28,8.27,104.56,12.41,156.84,1.89,23.9,3.85,47.79,5.64,71.7.78,10.48-5.3,17.92-14.65,18.4-8.72.45-15.42-6.19-16.2-16.12-4.14-52.95-8.23-105.9-12.41-158.84-2.63-33.36-5.39-66.71-8.1-100.06l-1.11-.43Z"/><path class="cls-1" d="m269.62,488.94c0,43.48.03,86.96-.02,130.44-.01,12.17-9.92,19.83-20.55,15.97-5.63-2.04-8.92-6.24-10.03-12.09-.31-1.62-.31-3.32-.31-4.98,0-86.12.02-172.25-.04-258.37,0-7.25,2.09-13.21,8.83-16.61,9.29-4.69,20.45,1.36,21.89,11.72.27,1.97.21,3.99.21,5.98.01,42.65,0,85.29,0,127.94Z"/></g></svg>