<?xml version="1.0" encoding="UTF-8"?><svg id="Laag_2" xmlns="http://www.w3.org/2000/svg" viewBox="0 0 447.42 510.7"><defs><style>.cls-1{fill:#1a1f31;}</style></defs><g id="Laag_1-2"><g id="HKJvA8.tif"><path class="cls-1" d="m340.42,0c2.37,1.15,4.82,2.17,7.09,3.49,10.67,6.2,14.65,16.68,11.26,29.57-3.28,12.48-10.13,23.11-18.24,32.8-7.76,9.29-16.22,18.01-24.7,26.67-1.71,1.75-4.88,2.92-7.38,2.93-56.51.16-113.02.15-169.54.04-2.13,0-4.82-.6-6.3-1.95-14.52-13.29-27.95-27.61-37.45-44.99-3.35-6.14-5.76-13.07-7.2-19.93-2.32-11.02,2.75-20.26,12.75-25.62C102.74,1.91,104.86,1,106.94,0c8.31,0,16.63,0,24.94,0,7.47,2.51,15.13,4.57,22.37,7.62,17.23,7.24,34.28,14.91,51.37,22.49,12.06,5.35,23.95,5.13,36.12.05C266.24,19.92,289.64,6.97,315.47,0,323.79,0,332.1,0,340.42,0ZM123.59,31.92c-.42.45-.84.9-1.26,1.35,7.97,9.5,15.86,19.06,24.01,28.4.93,1.07,3.3,1.21,5.01,1.23,12.8.1,25.59.05,38.39.05,2.67,0,5.33,0,8,0-25.07-10.04-47.86-24.9-74.15-31.03Zm126.09,31.02c15.94,0,31.88.03,47.81-.05,1.21,0,2.84-.36,3.55-1.19,8.07-9.41,15.99-18.94,23.96-28.45-.41-.45-.83-.89-1.24-1.34-26.28,6.15-49.09,20.94-74.08,31.02Z"/><path class="cls-1" d="m223.57,158.76c27.94,0,55.87.07,83.8-.08,3.87-.02,6.92.94,9.98,3.32,29.1,22.63,52.27,50.51,71.81,81.51,25.24,40.04,43.81,82.92,53.46,129.4,4.62,22.24,6.62,44.66,2.74,67.28-5.14,29.93-22.98,48.81-51.11,58.77-16.56,5.86-33.77,8.69-51.16,9.71-21.54,1.27-43.15,1.8-64.74,1.99-22.26.19-44.53-.56-66.8-.61-13.62-.04-27.24.78-40.86.63-33.35-.37-66.8.31-99.71-6.72-15.55-3.32-30.36-8.51-43.08-18.43-16.13-12.58-24.16-29.71-26.64-49.54-4.22-33.85,2.4-66.43,12.79-98.39,17.63-54.22,44.55-103.26,83.32-145.28,10.32-11.18,22.27-20.88,33.73-30.97,1.86-1.64,5.06-2.47,7.64-2.48,28.27-.17,56.53-.11,84.8-.11Zm.13,319.31c7.14,0,14.29.11,21.43-.02,32.38-.61,64.8-.6,97.14-2.26,13.9-.72,27.88-4.06,41.36-7.84,16.86-4.73,27.43-16.25,30.09-34.1,2.78-18.66.72-37.09-3.02-55.39-6.39-31.25-17.71-60.75-32.38-88.97-18.47-35.51-41.31-67.74-71.63-94.29-3.05-2.67-6.07-3.93-10.23-3.91-44.39.15-88.78.09-133.18.09-19.64,0-19.95-.29-33.61,14.04-54.44,57.11-88.73,124.01-96.88,203.16-.99,9.59-.08,19.68,1.77,29.19,3.66,18.8,17.72,27.5,34.82,32.27,23.89,6.67,48.5,7.42,73.04,7.9,27.08.52,54.19.12,81.28.12Z"/><path class="cls-1" d="m223.92,110.85c26.1,0,52.21,0,78.31,0,9.38,0,16.59,5.81,17.22,13.81.82,10.43-4.54,17.12-14.98,18.58-1.8.25-3.64.23-5.47.23-50.21.01-100.42.02-150.63-.01-2.31,0-4.66-.1-6.93-.49-9.31-1.61-14.3-8.43-13.53-18.29.6-7.68,7.68-13.8,16.21-13.82,26.6-.04,53.2-.02,79.8-.02Z"/></g></g></svg>